<svg xmlns="http://www.w3.org/2000/svg" viewBox="0 0 760 240" role="img" aria-labelledby="title desc">
  <title id="title">Fraja.online</title>
  <desc id="desc">Fraja.online green play logo inspired by the Moroccan flag colors.</desc>
  <defs>
    <linearGradient id="green" x1="80" y1="34" x2="220" y2="214" gradientUnits="userSpaceOnUse">
      <stop stop-color="#36c66b"/>
      <stop offset=".48" stop-color="#008c4a"/>
      <stop offset="1" stop-color="#006233"/>
    </linearGradient>
    <linearGradient id="word" x1="300" y1="52" x2="630" y2="196" gradientUnits="userSpaceOnUse">
      <stop stop-color="#16a34a"/>
      <stop offset="1" stop-color="#006233"/>
    </linearGradient>
    <filter id="soft" x="-20%" y="-20%" width="140%" height="140%">
      <feDropShadow dx="0" dy="12" stdDeviation="12" flood-color="#00391e" flood-opacity=".2"/>
    </filter>
  </defs>
  <rect width="760" height="240" fill="none"/>
  <g filter="url(#soft)">
    <circle cx="140" cy="120" r="92" fill="none" stroke="#006233" stroke-width="8"/>
    <path d="M50 118c28-60 94-91 155-73 29 9 53 28 69 53h-29c-15-19-36-32-60-38-48-12-99 13-121 58z" fill="url(#green)"/>
    <path d="M226 67c-30-6-63 0-90 18-34 22-55 58-57 99-14-27-16-61-3-92 21-52 80-79 132-60 7 3 13 6 18 9z" fill="#159447"/>
    <path d="M87 188c34 30 85 39 130 18 30-14 51-39 61-68h-28c-10 22-28 39-51 49-35 15-76 7-102-19z" fill="#006233"/>
    <circle cx="142" cy="120" r="62" fill="url(#green)"/>
    <path d="M126 89c0-8 9-13 16-9l48 31c7 5 7 15 0 20l-48 31c-7 4-16-1-16-9z" fill="#fff"/>
    <path d="m140 38 9 28 29-1-24 16 10 28-24-17-24 17 10-28-24-16 29 1z" fill="#c1272d" opacity=".95"/>
  </g>
  <g font-family="Cairo, Tahoma, Arial, sans-serif" font-weight="900" letter-spacing="0">
    <text x="286" y="114" font-size="76" fill="url(#word)">Fraja</text>
    <text x="286" y="185" font-size="68" fill="#39a85a">.online</text>
  </g>
</svg>
